<svg width="20" height="21" viewBox="0 0 20 21" fill="none" xmlns="http://www.w3.org/2000/svg">
<path fill-rule="evenodd" clip-rule="evenodd" d="M9.219 0.220341C9.28867 0.150496 9.37143 0.0950815 9.46255 0.0572719C9.55367 0.0194622 9.65135 0 9.75 0C9.84865 0 9.94633 0.0194622 10.0375 0.0572719C10.1286 0.0950815 10.2113 0.150496 10.281 0.220341L19.281 9.22034C19.3506 9.29012 19.4058 9.37293 19.4433 9.46404C19.4809 9.55516 19.5002 9.65278 19.5 9.75134V20.2513C19.5 20.4503 19.421 20.641 19.2803 20.7817C19.1397 20.9223 18.9489 21.0013 18.75 21.0013H12C11.8011 21.0013 11.6103 20.9223 11.4697 20.7817C11.329 20.641 11.25 20.4503 11.25 20.2513V14.2513H8.25V20.2513C8.25 20.4503 8.17098 20.641 8.03033 20.7817C7.88968 20.9223 7.69891 21.0013 7.5 21.0013H0.750001C0.551089 21.0013 0.360323 20.9223 0.219671 20.7817C0.0790188 20.641 1.19624e-06 20.4503 1.19624e-06 20.2513V9.75134C-0.000174824 9.65278 0.0190762 9.55516 0.0566537 9.46404C0.0942313 9.37293 0.149399 9.29012 0.219001 9.22034L9.219 0.220341ZM1.5 10.0618V19.5013H6.75V13.5013C6.75 13.3024 6.82902 13.1117 6.96967 12.971C7.11032 12.8304 7.30109 12.7513 7.5 12.7513H12C12.1989 12.7513 12.3897 12.8304 12.5303 12.971C12.671 13.1117 12.75 13.3024 12.75 13.5013V19.5013H18V10.0618L9.75 1.81184L1.5 10.0618Z" fill="white"/>
<path fill-rule="evenodd" clip-rule="evenodd" d="M17.25 2.25146V7.50146L14.25 4.50146V2.25146C14.25 2.05255 14.329 1.86179 14.4697 1.72113C14.6103 1.58048 14.8011 1.50146 15 1.50146H16.5C16.6989 1.50146 16.8897 1.58048 17.0303 1.72113C17.171 1.86179 17.25 2.05255 17.25 2.25146Z" fill="white"/>
</svg>
